<?xml version="1.0" standalone="no"?>
<!DOCTYPE svg PUBLIC "-//W3C//DTD SVG 20010904//EN"
 "http://www.w3.org/TR/2001/REC-SVG-20010904/DTD/svg10.dtd">
<svg version="1.0" xmlns="http://www.w3.org/2000/svg"
 width="700.000000pt" height="700.000000pt" viewBox="0 0 700.000000 700.000000"
 preserveAspectRatio="xMidYMid meet">
<metadata>
Created by potrace 1.14, written by Peter Selinger 2001-2017
</metadata>
<g transform="translate(0.000000,700.000000) scale(0.100000,-0.100000)"
fill="#000000" stroke="none">
<path d="M2208 6735 c-82 -17 -142 -42 -226 -92 -41 -24 -75 -43 -77 -43 -3 0
-121 -69 -155 -90 -8 -5 -28 -17 -45 -26 -16 -9 -282 -161 -590 -337 -308
-177 -575 -329 -593 -338 -18 -10 -38 -22 -45 -27 -7 -5 -38 -23 -70 -40 -84
-46 -126 -76 -186 -135 -96 -94 -186 -249 -210 -365 -7 -36 -11 -365 -10
-1075 0 -1075 0 -1069 44 -1164 8 -17 15 -34 15 -38 0 -13 108 -170 142 -205
66 -70 130 -111 563 -360 242 -139 456 -262 475 -273 19 -11 62 -35 95 -54 33
-19 76 -43 95 -55 19 -11 126 -72 238 -136 112 -65 225 -129 250 -144 150 -88
234 -116 387 -134 33 -3 62 -8 64 -9 1 -2 13 0 25 4 18 7 25 1 56 -53 51 -90
178 -213 280 -272 47 -27 90 -51 95 -53 6 -2 26 -14 45 -26 19 -12 57 -34 83
-48 26 -15 154 -88 285 -163 130 -75 253 -146 272 -157 19 -10 143 -81 275
-157 132 -76 260 -149 285 -163 25 -14 107 -61 183 -105 209 -123 298 -152
459 -152 83 0 203 21 262 45 31 13 130 69 441 250 94 54 144 84 190 112 25 15
309 180 520 303 88 51 170 99 182 107 l21 14 4 -143 c3 -124 6 -148 26 -185
41 -77 109 -130 191 -148 37 -8 202 -8 240 -1 76 16 149 75 186 151 20 39 20
70 20 2075 l0 2035 -27 50 c-34 64 -77 108 -135 136 -39 19 -63 22 -162 22
-95 1 -124 -3 -162 -20 -65 -29 -114 -76 -146 -141 -26 -52 -28 -68 -31 -194
-2 -76 -7 -138 -10 -138 -4 0 -20 8 -37 18 -16 10 -50 30 -75 44 -25 14 -112
65 -195 113 -82 48 -163 95 -180 105 -16 10 -172 100 -345 200 -173 101 -328
191 -345 200 -16 10 -52 30 -80 46 -124 73 -219 97 -371 96 l-82 -1 -50 82
c-61 99 -119 162 -192 209 -30 20 -269 160 -530 311 -261 151 -491 284 -510
295 -42 25 -118 69 -185 107 -27 15 -146 84 -264 152 -117 69 -233 133 -257
143 -108 47 -294 62 -416 35z m308 -769 c74 -14 131 -41 297 -139 43 -26 81
-47 83 -47 3 0 17 -8 32 -19 22 -15 303 -180 444 -259 384 -219 421 -246 510
-380 39 -58 40 -67 5 -83 -12 -5 -35 -17 -52 -28 -27 -16 -897 -514 -985 -563
-217 -122 -299 -188 -377 -304 -59 -87 -103 -188 -118 -269 -3 -16 -5 -358 -5
-759 l-1 -728 -62 5 c-133 12 -159 23 -462 196 -137 79 -270 155 -295 169 -25
13 -74 42 -110 62 -36 20 -85 48 -110 62 -25 14 -100 57 -167 97 -68 39 -126
71 -129 71 -7 0 -69 49 -115 91 -91 84 -182 248 -205 369 -4 19 -7 316 -8 660
-1 465 2 643 11 695 31 169 178 375 330 460 19 11 47 27 62 35 130 75 178 102
191 110 8 5 60 35 115 66 55 31 219 125 365 209 146 84 288 163 315 177 116
58 281 74 441 44z m2315 -1340 c84 -11 156 -43 341 -152 101 -59 197 -114 213
-124 17 -10 82 -48 145 -85 63 -38 126 -74 140 -82 14 -8 43 -25 65 -38 44
-27 166 -98 224 -131 161 -90 249 -185 314 -340 57 -134 57 -141 57 -843 -1
-719 -1 -721 -71 -867 -50 -104 -149 -219 -219 -256 -14 -7 -54 -30 -89 -51
-35 -22 -78 -47 -95 -57 -17 -9 -206 -120 -421 -245 -464 -272 -460 -269 -560
-295 -101 -26 -268 -22 -362 8 -52 16 -244 117 -368 193 -16 11 -36 22 -44 25
-11 6 -265 150 -451 256 -19 11 -91 52 -160 91 -160 90 -195 114 -253 174 -70
72 -103 123 -86 134 20 13 219 131 252 149 32 18 188 108 307 178 47 27 204
119 350 204 335 195 340 199 398 256 89 89 176 249 198 367 4 22 8 371 10 775
1 404 3 742 3 751 1 13 12 15 59 14 31 -2 78 -6 103 -9z m-837 -698 c0 -222
-4 -418 -8 -436 -30 -149 -130 -317 -238 -399 -38 -29 -533 -322 -709 -419 -3
-2 -5 187 -4 419 2 349 5 430 18 467 63 185 174 326 328 418 118 70 172 101
189 109 8 3 39 21 68 40 29 18 54 33 57 33 3 0 71 38 152 85 81 47 148 85 148
85 0 0 0 -181 -1 -402z"/>
</g>
</svg>
